<?xml version="1.0" standalone="no"?>
<!DOCTYPE svg PUBLIC "-//W3C//DTD SVG 20010904//EN"
 "http://www.w3.org/TR/2001/REC-SVG-20010904/DTD/svg10.dtd">
<svg version="1.0" xmlns="http://www.w3.org/2000/svg"
 width="2100.000000pt" height="2100.000000pt" viewBox="0 0 2100.000000 2100.000000"
 preserveAspectRatio="xMidYMid meet">

<g transform="translate(0.000000,2100.000000) scale(0.100000,-0.100000)"
fill="#000000" stroke="none">
<path d="M16026 16917 c-274 -269 -400 -401 -403 -417 -1 -14 -7 -34 -13 -45
-13 -29 -56 -162 -70 -220 -6 -27 -16 -59 -21 -70 -4 -11 -16 -45 -25 -75 -9
-30 -23 -74 -30 -98 -8 -24 -12 -47 -9 -52 3 -5 1 -11 -5 -15 -5 -3 -10 -15
-10 -26 0 -10 -4 -27 -9 -37 -6 -9 -19 -51 -31 -92 -11 -41 -24 -82 -27 -90
-4 -8 -8 -19 -8 -25 -1 -5 -4 -17 -7 -25 -21 -55 -34 -110 -26 -110 4 0 48
-18 96 -41 92 -43 184 -85 217 -99 23 -10 139 -63 245 -112 118 -55 112 -56
148 2 18 28 32 53 32 55 0 3 36 60 81 127 45 68 89 140 97 161 9 20 20 37 24
37 5 0 8 4 8 10 0 5 13 29 29 52 55 83 118 183 124 201 8 21 34 22 73 3 16 -8
52 -24 79 -36 28 -12 82 -37 122 -56 40 -19 79 -34 88 -34 8 0 15 -3 15 -8 0
-4 15 -13 33 -21 61 -26 122 -54 205 -92 45 -22 86 -39 90 -39 5 0 26 -8 48
-19 21 -10 62 -29 89 -41 28 -12 96 -44 153 -71 56 -27 105 -49 107 -49 2 0
46 -20 98 -44 52 -24 105 -47 118 -51 13 -4 49 -20 79 -35 47 -25 149 -71 215
-100 11 -4 40 -17 65 -28 45 -20 73 -32 165 -72 28 -12 77 -35 110 -50 118
-56 190 -87 215 -95 14 -4 27 -11 30 -14 3 -4 25 -15 50 -26 25 -10 88 -39
140 -63 171 -80 199 -92 212 -92 12 0 24 23 101 190 53 118 70 160 66 164 -8
6 -238 116 -244 116 -3 0 -44 18 -90 40 -46 22 -86 40 -89 40 -4 0 -73 31
-201 90 -33 15 -95 44 -138 64 -42 20 -81 36 -86 36 -5 0 -31 11 -58 24 -92
47 -282 134 -373 173 -19 8 -47 21 -62 29 -14 8 -33 14 -42 14 -9 0 -16 4 -16
8 0 5 -19 14 -42 21 -24 7 -63 24 -88 38 -25 13 -74 37 -110 53 -56 24 -147
65 -255 115 -16 7 -48 21 -70 31 -61 25 -113 49 -185 82 -138 63 -177 81 -250
112 -169 71 -193 90 -173 132 15 31 27 69 53 158 12 41 30 104 41 139 10 35
19 70 19 78 0 7 4 21 9 31 14 27 38 102 51 162 7 30 16 60 20 65 4 6 15 36 24
68 21 66 18 72 -53 97 -20 7 -70 28 -111 48 -180 84 -242 112 -248 112 -4 0
-187 -177 -406 -393z"/>
<path d="M12940 17193 c0 -14 124 -350 151 -410 11 -25 34 -87 51 -136 16 -50
38 -108 49 -129 11 -22 34 -81 50 -131 17 -51 39 -110 49 -132 26 -58 40 -117
34 -145 -3 -20 -3 -21 4 -6 7 17 10 16 21 -11 7 -16 86 -103 176 -193 90 -90
162 -166 160 -168 -3 -3 -13 1 -22 9 -10 7 -5 -1 11 -19 30 -32 49 -45 26 -17
-7 9 -10 18 -7 21 9 10 41 -18 107 -94 89 -102 341 -354 347 -348 3 3 8 103
10 223 3 173 7 218 17 218 10 0 126 -157 126 -171 0 -3 56 -85 128 -188 23
-33 62 -91 86 -127 49 -73 61 -86 69 -65 7 19 -71 251 -118 347 -13 28 -27 64
-31 82 -3 17 -10 38 -15 47 -4 8 -20 51 -35 95 -15 44 -31 84 -36 90 -4 5 -8
18 -8 30 0 12 -4 25 -8 31 -4 5 -14 27 -21 49 -7 22 -19 58 -28 80 -26 68 -29
76 -77 225 -26 80 -56 163 -65 185 -10 22 -26 64 -36 94 -13 40 -20 50 -26 39
-8 -15 -25 -112 -35 -203 -2 -22 -6 -51 -9 -65 -10 -45 -26 -134 -36 -200 -14
-101 -20 -120 -33 -120 -7 0 -39 35 -72 77 -32 42 -77 97 -100 122 -22 26
-102 120 -178 211 -75 91 -169 203 -209 249 -98 114 -128 150 -158 191 -23 31
-278 340 -300 365 -6 5 -9 5 -9 -2z"/>
<path d="M12966 17047 c3 -10 9 -15 12 -12 3 3 0 11 -7 18 -10 9 -11 8 -5 -6z"/>
<path d="M13010 16924 c0 -6 7 -19 16 -30 14 -18 14 -18 3 6 -14 31 -19 36
-19 24z"/>
<path d="M13061 16800 c0 -8 4 -22 9 -30 12 -18 12 -2 0 25 -6 13 -9 15 -9 5z"/>
<path d="M13255 16278 c4 -13 11 -27 16 -33 5 -5 4 5 -2 23 -12 36 -24 44 -14
10z"/>
<path d="M13340 16051 c13 -23 180 -187 180 -176 0 5 -43 50 -95 100 -52 51
-90 85 -85 76z"/>
<path d="M13530 15862 c0 -4 16 -24 37 -43 l36 -34 -33 43 c-34 43 -40 48 -40
34z"/>
<path d="M14190 15691 c0 -12 49 -91 57 -91 3 0 -43 85 -54 99 -2 2 -3 -1 -3
-8z"/>
<path d="M13755 15640 c10 -11 20 -20 23 -20 3 0 -3 9 -13 20 -10 11 -20 20
-23 20 -3 0 3 -9 13 -20z"/>
<path d="M14255 15580 c22 -38 95 -140 95 -132 0 9 -75 120 -93 137 -7 7 -7 5
-2 -5z"/>
<path d="M13830 15563 c0 -11 274 -283 285 -283 4 0 -26 33 -66 73 -41 41
-107 106 -146 146 -40 40 -73 69 -73 64z"/>
<path d="M13650 15451 c0 -11 -3 -28 -6 -38 -4 -13 -3 -14 4 -5 7 11 10 11 15
-2 3 -8 1 -16 -5 -18 -6 -2 0 -24 15 -53 14 -28 26 -45 26 -40 0 6 -6 21 -14
35 -8 14 -14 32 -14 40 0 17 127 -238 128 -257 1 -15 -50 -18 -65 -5 -5 5 -36
14 -69 21 -33 7 -91 23 -130 36 -158 52 -399 122 -520 151 -33 8 -68 19 -77
24 -10 6 -26 10 -36 10 -10 0 -44 9 -76 20 -32 12 -60 19 -63 17 -5 -6 63 -59
107 -83 19 -10 37 -21 40 -24 13 -15 154 -118 197 -145 26 -17 106 -73 176
-124 139 -100 175 -115 297 -126 41 -4 93 -11 114 -17 22 -5 60 -13 85 -18 26
-4 115 -22 199 -39 164 -33 182 -35 182 -23 0 4 -43 61 -95 127 -52 65 -95
123 -95 127 0 16 17 15 55 -2 78 -34 141 -58 215 -79 41 -12 94 -31 118 -42
56 -25 108 -36 98 -21 -6 10 -98 80 -184 140 -75 53 -120 85 -172 123 -30 22
-100 70 -155 106 -55 36 -125 85 -155 108 -30 23 -74 54 -97 69 -40 24 -43 25
-43 7z"/>
<path d="M14391 15379 c17 -27 33 -48 36 -45 5 5 -54 96 -62 96 -3 0 9 -23 26
-51z"/>
<path d="M1763 15338 l-43 -44 0 -2080 0 -2080 38 -37 38 -37 444 0 c490 0
647 11 830 56 215 52 413 175 557 346 286 337 451 797 503 1393 13 157 11 602
-4 685 l-11 65 -322 3 -321 2 -12 73 c-12 73 -77 413 -87 455 l-5 22 336 0
336 0 -6 43 c-47 320 -210 653 -429 873 -142 143 -302 229 -510 277 -84 19
-129 21 -690 24 l-600 4 -42 -43z m1142 -682 c143 -49 267 -152 334 -279 12
-23 16 -33 7 -22 -8 11 -20 25 -26 32 -5 7 -10 15 -10 18 0 3 -13 20 -30 38
-16 18 -30 37 -30 43 0 6 -11 21 -25 34 -14 13 -25 20 -25 16 0 -5 -8 -2 -17
5 -10 8 5 -11 34 -42 86 -94 144 -195 199 -349 25 -72 32 -61 9 15 -8 27 -12
51 -10 53 6 6 62 -182 80 -268 36 -172 47 -282 52 -548 7 -345 -12 -586 -72
-900 -69 -360 -207 -582 -430 -691 -107 -53 -168 -63 -370 -59 l-170 3 -6 895
c-4 492 -10 910 -14 928 l-7 32 -313 0 -313 0 -6 53 c-9 73 -10 425 -2 465 l8
32 313 0 313 0 6 33 c4 17 9 133 13 257 3 149 9 228 17 233 6 4 101 6 211 4
186 -4 206 -6 280 -31z m404 -421 c0 -5 -6 1 -14 15 -8 14 -14 30 -14 35 0 6
6 -1 14 -15 8 -14 14 -29 14 -35z"/>
<path d="M3351 14034 c0 -11 3 -14 6 -6 3 7 2 16 -1 19 -3 4 -6 -2 -5 -13z"/>
<path d="M5010 15341 c-22 -84 -282 -1138 -301 -1223 -11 -50 -18 -92 -16 -94
2 -2 13 28 26 66 l22 70 595 0 595 0 -5 33 c-26 155 -53 274 -159 697 l-122
485 -312 3 -312 2 -11 -39z"/>
<path d="M6237 15342 l-37 -38 0 -275 0 -275 38 -37 38 -37 380 0 c282 0 383
-3 392 -12 9 -9 12 -417 12 -1773 l0 -1761 38 -37 38 -37 265 0 265 0 37 38
38 39 -4 1214 c-1 668 -7 1224 -11 1237 l-8 22 -313 0 -314 0 -6 53 c-10 77
-11 426 -1 465 l8 32 313 0 c289 0 313 1 320 18 4 9 10 121 12 247 3 131 10
235 15 243 8 9 101 12 402 12 l392 0 37 38 37 38 0 275 0 275 -38 37 -38 37
-1135 0 -1135 0 -37 -38z"/>
<path d="M9160 15341 c-22 -84 -282 -1138 -301 -1223 -11 -50 -18 -92 -16 -94
2 -2 13 28 26 66 l22 70 595 0 595 0 -5 33 c-26 155 -53 274 -159 697 l-122
485 -312 3 -312 2 -11 -39z"/>
<path d="M14466 15267 c3 -10 9 -15 12 -12 3 3 0 11 -7 18 -10 9 -11 8 -5 -6z"/>
<path d="M13710 15255 c0 -10 60 -125 65 -125 3 0 2 8 -3 18 -5 9 -19 38 -31
65 -19 41 -31 58 -31 42z"/>
<path d="M12960 15216 c0 -2 8 -10 18 -17 15 -13 16 -12 3 4 -13 16 -21 21
-21 13z"/>
<path d="M6189 14733 c14 -27 60 -67 68 -60 4 4 -9 23 -27 42 -36 37 -57 46
-41 18z"/>
<path d="M6870 14650 c0 -6 28 -10 65 -10 61 0 66 -2 75 -26 6 -14 10 -107 11
-207 1 -100 5 -193 9 -207 5 -14 8 80 9 218 l1 242 -85 0 c-50 0 -85 -4 -85
-10z"/>
<path d="M7775 14650 c-4 -7 122 -10 370 -10 248 0 374 3 370 10 -4 6 -138 10
-370 10 -232 0 -366 -4 -370 -10z"/>
<path d="M8511 12885 c-336 -1359 -414 -1691 -378 -1605 4 8 135 535 293 1170
408 1650 494 2001 494 2011 0 60 -73 -220 -409 -1576z"/>
<path d="M13150 14411 c0 -42 -4 -60 -14 -64 -8 -3 -548 -7 -1200 -8 -652 -1
-1186 -3 -1186 -5 0 -2 4 -12 9 -22 4 -9 21 -44 35 -76 91 -199 279 -357 621
-524 122 -60 252 -112 360 -146 50 -16 99 -32 110 -36 34 -14 116 -39 230 -70
61 -17 135 -37 165 -46 30 -8 89 -22 130 -30 41 -8 107 -21 145 -29 39 -8 99
-19 134 -25 35 -6 68 -13 73 -16 6 -4 69 -15 142 -25 72 -10 156 -23 186 -28
152 -27 338 -52 455 -61 134 -10 235 -26 270 -40 170 -72 268 -136 372 -241
105 -107 151 -192 204 -375 5 -17 9 -72 9 -123 0 -311 -183 -571 -525 -744
-77 -39 -105 -74 -105 -132 0 -28 -5 -35 -31 -44 -18 -6 -49 -11 -70 -11 l-39
0 0 -189 0 -190 1353 0 c1275 -1 2017 -6 2080 -16 l27 -4 0 199 0 200 -76 0
c-95 0 -110 8 -119 62 -11 72 -15 78 -75 108 -61 31 -192 136 -291 233 -126
124 -230 299 -276 464 -16 60 -24 323 -11 393 13 75 30 146 38 165 4 11 14 36
22 55 84 221 287 488 498 656 175 139 279 205 452 287 149 71 180 83 323 126
39 12 84 26 100 31 17 5 48 12 70 15 22 4 51 10 65 15 27 10 67 15 240 30 63
6 139 13 168 16 l52 5 0 160 0 159 -2560 0 -2560 0 0 -59z"/>
<path d="M5334 14005 c17 -62 236 -1036 236 -1054 0 -21 -2 -21 -243 -21 -152
0 -247 4 -253 10 -7 7 8 93 46 269 32 143 60 291 64 330 l7 71 -290 0 c-177 0
-291 4 -291 9 0 6 9 58 21 117 11 58 18 108 16 111 -4 3 -221 -865 -632 -2524
-31 -128 -40 -175 -31 -184 8 -9 8 -10 -1 -5 -26 15 -19 -12 13 -49 20 -23 31
-32 27 -20 -3 11 -12 24 -20 28 -7 4 -13 13 -13 20 1 7 13 -3 29 -21 l28 -32
298 2 298 3 131 585 c72 322 135 591 139 598 6 9 97 12 400 12 216 0 397 -4
404 -8 6 -4 72 -274 145 -600 l133 -592 317 0 317 0 35 44 c20 23 36 49 36 57
0 16 -505 2028 -545 2169 -14 52 -40 137 -57 188 l-30 92 -308 0 -308 0 -31
113 c-17 61 -40 150 -50 196 -11 46 -25 89 -32 95 -8 8 -10 6 -5 -9z"/>
<path d="M9484 14005 c17 -62 236 -1036 236 -1054 0 -21 -2 -21 -243 -21 -152
0 -247 4 -253 10 -7 7 8 93 46 269 32 143 60 291 64 330 l7 71 -290 0 c-177 0
-291 4 -291 9 0 6 9 58 21 117 11 58 18 108 16 111 -4 3 -221 -865 -632 -2524
-31 -128 -40 -175 -31 -184 8 -9 8 -10 -1 -5 -26 15 -19 -12 13 -49 20 -23 31
-32 27 -20 -3 11 -12 24 -20 28 -7 4 -13 13 -13 20 1 7 13 -3 29 -21 l28 -32
298 2 298 3 131 585 c72 322 135 591 139 598 6 9 97 12 400 12 216 0 397 -4
404 -8 6 -4 72 -274 145 -600 l133 -592 317 0 317 0 35 44 c20 23 36 49 36 57
0 16 -505 2028 -545 2169 -14 52 -40 137 -57 188 l-30 92 -308 0 -308 0 -31
113 c-17 61 -40 150 -50 196 -11 46 -25 89 -32 95 -8 8 -10 6 -5 -9z"/>
<path d="M4681 13994 c0 -11 3 -14 6 -6 3 7 2 16 -1 19 -3 4 -6 -2 -5 -13z"/>
<path d="M8831 13994 c0 -11 3 -14 6 -6 3 7 2 16 -1 19 -3 4 -6 -2 -5 -13z"/>
<path d="M4671 13954 c0 -11 3 -14 6 -6 3 7 2 16 -1 19 -3 4 -6 -2 -5 -13z"/>
<path d="M8821 13954 c0 -11 3 -14 6 -6 3 7 2 16 -1 19 -3 4 -6 -2 -5 -13z"/>
<path d="M4661 13914 c0 -11 3 -14 6 -6 3 7 2 16 -1 19 -3 4 -6 -2 -5 -13z"/>
<path d="M8811 13914 c0 -11 3 -14 6 -6 3 7 2 16 -1 19 -3 4 -6 -2 -5 -13z"/>
<path d="M4651 13874 c0 -11 3 -14 6 -6 3 7 2 16 -1 19 -3 4 -6 -2 -5 -13z"/>
<path d="M8801 13874 c0 -11 3 -14 6 -6 3 7 2 16 -1 19 -3 4 -6 -2 -5 -13z"/>
<path d="M9546 13528 c29 -128 70 -308 90 -400 33 -144 41 -168 57 -168 13 0
17 5 13 18 -2 9 -27 118 -55 242 -28 124 -64 286 -81 360 -29 126 -49 180 -69
180 -4 0 16 -105 45 -232z"/>
<path d="M13249 13197 c5 -5 21 -7 37 -5 27 3 26 4 -8 9 -22 3 -34 1 -29 -4z"/>
<path d="M13343 13183 c9 -2 25 -2 35 0 9 3 1 5 -18 5 -19 0 -27 -2 -17 -5z"/>
<path d="M13421 13176 c2 -2 36 -6 74 -9 44 -4 61 -3 45 2 -24 9 -127 15 -119
7z"/>
<path d="M13598 13153 c12 -2 32 -2 45 0 12 2 2 4 -23 4 -25 0 -35 -2 -22 -4z"/>
<path d="M13722 13140 c26 -5 83 -24 128 -43 45 -20 79 -30 77 -24 -2 7 -37
27 -78 44 -53 24 -88 32 -124 32 l-50 -1 47 -8z"/>
<path d="M9085 12230 c-4 -7 120 -10 364 -10 l371 0 14 -22 c7 -13 71 -277
140 -588 91 -403 132 -569 143 -577 21 -16 638 -19 628 -3 -4 6 -118 10 -311
10 -289 0 -304 1 -304 18 0 11 -58 279 -130 597 -71 317 -130 579 -130 581 0
10 -779 3 -785 -6z"/>
<path d="M5706 12215 c4 -8 8 -15 10 -15 2 0 4 7 4 15 0 8 -4 15 -10 15 -5 0
-7 -7 -4 -15z"/>
<path d="M13737 11576 c-5 -15 -6 -31 -3 -34 8 -8 18 25 14 45 -3 13 -6 10
-11 -11z"/>
<path d="M13580 11291 c0 -157 3 -191 15 -201 9 -7 18 -10 22 -6 3 3 1 6 -5 6
-9 0 -12 53 -12 195 0 123 -4 195 -10 195 -6 0 -10 -70 -10 -189z"/>
<path d="M1710 11117 c0 -2 15 -16 33 -33 l32 -29 -29 33 c-28 30 -36 37 -36
29z"/>
<path d="M7058 11104 c13 -24 40 -49 47 -42 3 2 -9 18 -26 34 -24 22 -29 24
-21 8z"/>
<path d="M8220 11030 c0 -6 97 -10 271 -10 177 0 268 3 264 10 -4 6 -105 10
-271 10 -169 0 -264 -4 -264 -10z"/>
<path d="M2597 11004 c-452 -82 -799 -443 -882 -921 -32 -181 -16 -451 35
-599 26 -74 24 -81 -5 -19 -33 69 -30 35 4 -51 46 -118 119 -230 211 -324 47
-47 61 -61 33 -30 -29 30 -53 58 -53 62 0 3 -14 20 -30 38 -16 18 -30 37 -30
44 0 6 17 -9 37 -34 130 -161 315 -282 623 -410 165 -69 268 -121 365 -185 82
-54 182 -150 204 -195 l12 -25 -18 24 c-20 27 -94 99 -138 133 -16 12 2 -9 42
-48 56 -57 81 -91 117 -166 25 -51 46 -99 46 -106 0 -7 4 -12 10 -12 5 0 3 19
-6 42 -8 22 -12 43 -10 45 4 5 28 -65 46 -135 18 -69 13 -227 -9 -314 -60
-234 -251 -441 -475 -515 -112 -37 -292 -39 -410 -5 -168 48 -339 158 -518
332 l-98 95 0 -345 0 -345 64 -42 c92 -60 219 -127 310 -163 269 -106 585
-119 835 -34 353 121 663 443 781 812 33 102 57 262 47 305 l-7 27 -240 0
-239 0 -6 48 c-24 198 -42 260 -115 399 l-48 93 293 2 294 3 -22 66 c-34 101
-83 174 -187 279 -140 142 -329 260 -587 366 -252 104 -443 225 -522 330 -137
183 -160 434 -59 642 44 91 168 217 258 260 218 107 471 67 736 -114 65 -44
244 -193 244 -202 0 -3 -8 2 -17 9 -16 13 -17 12 -4 -4 8 -9 17 -15 20 -11 3
3 5 150 3 327 l-3 322 -31 27 c-46 40 -252 143 -355 178 -171 57 -381 74 -546
44z m-767 -1714 c0 -8 -14 14 -30 48 -17 35 -30 67 -30 70 1 13 59 -103 60
-118z m24 -26 c3 -8 2 -12 -4 -9 -6 3 -10 10 -10 16 0 14 7 11 14 -7z"/>
<path d="M18315 11009 c-254 -32 -510 -166 -690 -361 -274 -295 -447 -699
-529 -1232 -38 -241 -49 -438 -43 -706 10 -423 72 -789 186 -1107 53 -150 54
-153 31 -108 -11 22 -36 81 -55 130 -45 114 -35 62 12 -65 87 -234 202 -427
336 -563 45 -46 63 -63 40 -37 -24 25 -43 48 -43 51 0 3 -20 27 -45 53 -25 27
-45 55 -45 63 0 7 -7 16 -15 19 -8 4 -15 12 -15 20 0 8 -4 14 -9 14 -5 0 -11
9 -14 21 -3 12 -4 19 -2 17 1 -1 30 -39 62 -83 194 -262 417 -394 668 -395
217 0 410 118 556 340 14 22 18 23 33 11 9 -8 22 -24 27 -35 9 -19 9 -20 -4
-3 -8 9 -20 17 -27 17 -10 0 -10 -4 2 -17 8 -10 47 -71 87 -135 40 -65 77
-118 82 -118 6 0 7 6 3 13 -6 10 -4 10 7 0 9 -9 60 -13 177 -13 l163 0 -3 553
c-2 303 -7 560 -12 570 -7 15 -29 17 -241 17 l-233 0 -7 27 c-3 15 -5 130 -4
255 2 139 -1 232 -7 238 -6 6 -130 11 -304 13 -170 1 -65 3 246 5 l542 2 7 23
c3 12 9 120 12 240 l6 217 -561 0 c-501 0 -560 -2 -566 -16 -8 -21 -8 -253 1
-387 l6 -107 294 0 c270 0 294 -1 301 -17 12 -30 7 -492 -6 -585 -41 -285
-151 -492 -301 -565 -48 -24 -68 -28 -141 -28 -75 0 -93 4 -153 32 -83 40
-183 135 -251 241 -40 61 -178 336 -199 395 -6 16 -27 17 -256 17 l-250 0 -21
67 c-28 89 -49 224 -57 361 l-6 112 240 0 240 0 7 53 c3 28 6 122 6 207 1 688
144 1217 407 1500 240 259 525 314 823 159 93 -48 183 -116 278 -208 40 -39
75 -71 77 -71 3 0 5 150 5 334 l0 333 -138 71 c-273 140 -471 182 -717 151z
m-976 -3646 c23 -46 39 -83 36 -83 -5 0 -85 156 -85 166 0 12 7 1 49 -83z m61
-113 c6 -11 8 -20 6 -20 -3 0 -10 9 -16 20 -6 11 -8 20 -6 20 3 0 10 -9 16
-20z m1412 -275 l10 -20 -19 20 c-10 11 -22 29 -26 40 l-7 20 16 -20 c8 -11
20 -29 26 -40z m49 -80 l10 -20 -16 20 c-9 11 -21 29 -26 40 l-10 20 16 -20
c9 -11 21 -29 26 -40z m29 -45 c6 -11 8 -20 6 -20 -3 0 -10 9 -16 20 -6 11 -8
20 -6 20 3 0 10 -9 16 -20z"/>
<path d="M4096 10951 c-3 -5 -5 -941 -5 -2080 l1 -2071 245 0 246 0 -7 523
c-4 287 -9 543 -12 570 l-6 47 -218 0 -217 0 -7 38 c-8 49 -8 329 0 425 l7 77
216 2 216 3 7 50 c10 80 9 913 -2 1220 -6 165 -6 283 -1 288 13 13 30 0 42
-31 6 -16 6 -29 0 -35 -6 -6 1 -40 21 -96 77 -219 750 -2066 758 -2082 6 -9
18 -16 27 -15 18 3 33 41 47 119 l7 37 -39 0 -39 0 -37 80 c-35 76 -156 425
-156 449 0 8 71 11 233 11 l234 0 41 88 c55 118 242 637 368 1022 57 173 113
347 126 385 15 45 28 70 38 70 12 0 15 -17 13 -100 -1 -55 -5 -785 -9 -1622
l-6 -1523 263 0 262 0 -6 508 c-4 279 -10 535 -13 570 l-7 62 -232 0 -233 0
-7 28 c-9 33 -8 431 1 478 l6 34 229 0 c171 0 230 3 236 13 12 18 22 1254 15
1905 l-5 562 -299 0 -299 0 -13 -30 c-6 -16 -165 -457 -352 -980 -296 -830
-341 -950 -358 -948 -15 2 -31 38 -74 158 -40 115 -559 1563 -634 1773 l-10
27 -298 0 c-167 0 -301 -4 -304 -9z m558 -1091 c3 -14 -3 -7 -13 15 -11 22
-19 47 -19 55 0 17 22 -32 32 -70z m50 -140 c5 -20 3 -19 -8 5 -7 17 -16 41
-20 55 -5 20 -3 19 8 -5 7 -16 16 -41 20 -55z m40 -110 c3 -14 -3 -7 -14 15
-11 22 -19 47 -19 55 1 17 23 -32 33 -70z m50 -140 c3 -14 -3 -7 -13 15 -11
22 -19 47 -19 55 0 17 22 -32 32 -70z m40 -110 c5 -20 3 -19 -8 5 -7 17 -16
41 -20 55 -5 20 -3 19 8 -5 7 -16 16 -41 20 -55z m40 -110 c5 -20 3 -19 -8 5
-7 17 -16 41 -20 55 -5 20 -3 19 8 -5 7 -16 16 -41 20 -55z m40 -110 c5 -20 3
-19 -8 5 -7 17 -16 41 -20 55 -5 20 -3 19 8 -5 7 -16 16 -41 20 -55z m40 -110
c5 -20 3 -19 -8 5 -7 17 -16 41 -20 55 -5 20 -3 19 8 -5 7 -16 16 -41 20 -55z
m40 -110 c5 -20 3 -19 -8 5 -7 17 -16 41 -20 55 -5 20 -3 19 8 -5 7 -16 16
-41 20 -55z m40 -110 c5 -20 3 -19 -8 5 -7 17 -16 41 -20 55 -5 20 -3 19 8 -5
7 -16 16 -41 20 -55z m40 -110 c5 -20 3 -19 -8 5 -7 17 -16 41 -20 55 -5 20
-3 19 8 -5 7 -16 16 -41 20 -55z m40 -110 c5 -20 3 -19 -8 5 -7 17 -16 41 -20
55 -5 20 -3 19 8 -5 7 -16 16 -41 20 -55z m40 -110 c5 -20 3 -19 -8 5 -7 17
-16 41 -20 55 -5 20 -3 19 8 -5 7 -16 16 -41 20 -55z m40 -110 c5 -20 3 -19
-8 5 -7 17 -16 41 -20 55 -5 20 -3 19 8 -5 7 -16 16 -41 20 -55z m40 -110 c5
-20 3 -19 -8 5 -7 17 -16 41 -20 55 -5 20 -3 19 8 -5 7 -16 16 -41 20 -55z
m40 -110 c3 -14 -3 -7 -13 15 -11 22 -19 47 -19 55 0 17 22 -32 32 -70z m40
-110 c3 -14 -3 -7 -13 15 -11 22 -19 47 -19 55 0 17 22 -32 32 -70z m40 -110
c3 -14 -3 -7 -13 15 -11 22 -19 47 -19 55 0 17 22 -32 32 -70z m40 -110 c3
-14 -3 -7 -13 15 -11 22 -19 47 -19 55 0 17 22 -32 32 -70z"/>
<path d="M7296 10951 c-3 -5 -5 -941 -5 -2080 l1 -2071 265 0 265 0 -5 538
c-3 295 -8 552 -12 570 l-7 32 -238 0 -237 0 -7 38 c-8 49 -8 329 0 425 l7 77
237 0 238 0 7 38 c4 20 9 578 12 1240 l4 1202 -260 0 c-143 0 -262 -4 -265 -9z"/>
<path d="M8090 10690 l0 -270 418 0 c312 0 421 -3 430 -12 9 -9 12 -425 12
-1810 l0 -1798 261 0 260 0 -3 553 c-2 303 -7 560 -12 570 -7 15 -29 17 -241
17 -233 0 -234 0 -242 23 -9 26 -8 442 2 486 l7 31 233 0 c232 0 233 0 241 23
4 12 9 443 11 957 3 646 7 938 15 947 8 10 101 13 439 13 l429 0 0 270 0 270
-1130 0 -1130 0 0 -270z"/>
<path d="M10616 10951 c-3 -5 -5 -941 -5 -2080 l1 -2071 259 0 259 0 -1 508
c-1 279 -4 534 -8 567 l-6 60 -236 3 -236 2 -7 38 c-8 49 -8 329 0 425 l7 77
232 0 233 0 5 23 c3 12 9 60 13 107 3 47 11 91 16 98 8 9 134 12 567 12 306 0
562 -4 570 -9 11 -7 13 -167 12 -960 l-1 -951 266 0 267 0 -6 508 c-4 279 -10
535 -13 570 l-7 62 -237 0 -237 0 -7 31 c-8 41 -8 369 0 448 l7 61 233 0 c175
0 235 3 241 13 12 18 22 1254 15 1905 l-5 562 -256 -2 -256 -3 -5 -860 -5
-860 -564 -3 c-408 -1 -568 1 -577 9 -12 10 -14 157 -14 865 l0 854 -254 0
c-141 0 -257 -4 -260 -9z"/>
<path d="M13366 10951 c-3 -5 -5 -941 -5 -2080 l1 -2071 265 0 265 0 -5 538
c-3 295 -8 552 -12 570 l-7 32 -238 0 -237 0 -7 38 c-8 49 -8 329 0 425 l7 77
237 0 238 0 7 38 c4 20 9 578 12 1240 l4 1202 -260 0 c-143 0 -262 -4 -265 -9z"/>
<path d="M14447 10953 c-4 -3 -7 -939 -7 -2080 l1 -2073 250 0 250 0 -4 533
c-3 292 -8 549 -12 570 l-7 37 -223 0 -222 0 -7 31 c-8 41 -8 369 0 448 l7 61
222 0 222 0 6 58 c21 197 15 698 -14 1142 -5 91 -11 192 -12 225 -2 60 -2 60
26 60 28 0 30 -2 58 -110 15 -60 51 -180 78 -265 28 -85 48 -156 46 -158 -5
-5 -99 285 -132 408 -29 105 -53 142 -53 78 0 -72 154 -541 310 -943 100 -260
858 -2142 876 -2177 14 -28 52 -45 76 -35 8 4 5 8 -9 12 -21 7 -39 33 -28 43
3 3 5 0 5 -6 0 -9 67 -12 255 -12 l255 0 -1 508 c-1 279 -4 534 -8 567 l-6 60
-209 5 -210 5 -7 29 c-11 41 -29 274 -29 375 0 144 -23 131 230 131 217 0 218
0 226 23 4 12 10 570 11 1240 l4 1217 -251 0 -251 0 4 -1287 c4 -1042 8 -1331
20 -1513 9 -124 16 -249 17 -278 l0 -53 -32 3 c-30 3 -35 8 -52 55 l-18 53
-187 2 -186 3 -42 85 c-38 76 -152 370 -166 428 l-5 22 199 0 c109 0 199 3
199 8 0 20 -32 120 -74 237 -36 99 -718 1802 -870 2170 l-24 60 -244 3 c-134
1 -247 -1 -251 -5z m702 -1625 c11 -34 19 -63 17 -65 -2 -3 -12 20 -21 49 -10
29 -20 59 -23 66 -2 6 -2 12 1 12 3 0 15 -28 26 -62z m45 -128 c5 -17 4 -20
-2 -10 -5 8 -13 26 -16 40 -5 17 -4 20 2 10 5 -8 13 -26 16 -40z m30 -80 c5
-17 4 -20 -2 -10 -5 8 -13 26 -16 40 -5 17 -4 20 2 10 5 -8 13 -26 16 -40z
m30 -80 c5 -17 4 -20 -2 -10 -5 8 -13 26 -16 40 -5 17 -4 20 2 10 5 -8 13 -26
16 -40z m26 -65 c0 -5 -5 -3 -10 5 -5 8 -10 20 -10 25 0 6 5 3 10 -5 5 -8 10
-19 10 -25z m43 -115 c4 -14 -2 -7 -12 15 -10 22 -22 51 -25 65 -3 14 2 7 13
-15 10 -22 21 -51 24 -65z m27 -65 c0 -5 -5 -3 -10 5 -5 8 -10 20 -10 25 0 6
5 3 10 -5 5 -8 10 -19 10 -25z m20 -50 c0 -5 -5 -3 -10 5 -5 8 -10 20 -10 25
0 6 5 3 10 -5 5 -8 10 -19 10 -25z m20 -50 c0 -5 -5 -3 -10 5 -5 8 -10 20 -10
25 0 6 5 3 10 -5 5 -8 10 -19 10 -25z m20 -50 c0 -5 -5 -3 -10 5 -5 8 -10 20
-10 25 0 6 5 3 10 -5 5 -8 10 -19 10 -25z m20 -50 c0 -5 -5 -3 -10 5 -5 8 -10
20 -10 25 0 6 5 3 10 -5 5 -8 10 -19 10 -25z m70 -170 c33 -82 58 -150 56
-152 -2 -2 -28 58 -59 134 -66 163 -72 180 -63 172 3 -3 33 -73 66 -154z m80
-200 c0 -5 -5 -3 -10 5 -5 8 -10 20 -10 25 0 6 5 3 10 -5 5 -8 10 -19 10 -25z
m20 -50 c0 -5 -5 -3 -10 5 -5 8 -10 20 -10 25 0 6 5 3 10 -5 5 -8 10 -19 10
-25z m20 -50 c0 -5 -5 -3 -10 5 -5 8 -10 20 -10 25 0 6 5 3 10 -5 5 -8 10 -19
10 -25z m20 -50 c0 -5 -5 -3 -10 5 -5 8 -10 20 -10 25 0 6 5 3 10 -5 5 -8 10
-19 10 -25z m20 -50 c0 -5 -5 -3 -10 5 -5 8 -10 20 -10 25 0 6 5 3 10 -5 5 -8
10 -19 10 -25z m20 -50 c0 -5 -5 -3 -10 5 -5 8 -10 20 -10 25 0 6 5 3 10 -5 5
-8 10 -19 10 -25z m70 -170 c33 -82 58 -150 56 -152 -2 -2 -28 58 -59 134 -66
163 -72 180 -63 172 3 -3 33 -73 66 -154z m80 -200 c0 -5 -5 -3 -10 5 -5 8
-10 20 -10 25 0 6 5 3 10 -5 5 -8 10 -19 10 -25z m20 -50 c0 -5 -5 -3 -10 5
-5 8 -10 20 -10 25 0 6 5 3 10 -5 5 -8 10 -19 10 -25z m20 -50 c0 -5 -5 -3
-10 5 -5 8 -10 20 -10 25 0 6 5 3 10 -5 5 -8 10 -19 10 -25z m20 -50 c0 -5 -5
-3 -10 5 -5 8 -10 20 -10 25 0 6 5 3 10 -5 5 -8 10 -19 10 -25z m20 -50 c0 -5
-5 -3 -10 5 -5 8 -10 20 -10 25 0 6 5 3 10 -5 5 -8 10 -19 10 -25z m20 -50 c0
-5 -5 -3 -10 5 -5 8 -10 20 -10 25 0 6 5 3 10 -5 5 -8 10 -19 10 -25z m70
-170 c33 -82 58 -150 56 -152 -2 -2 -28 58 -59 134 -66 163 -72 180 -63 172 3
-3 33 -73 66 -154z m80 -200 c0 -5 -5 -3 -10 5 -5 8 -10 20 -10 25 0 6 5 3 10
-5 5 -8 10 -19 10 -25z m20 -50 c0 -5 -5 -3 -10 5 -5 8 -10 20 -10 25 0 6 5 3
10 -5 5 -8 10 -19 10 -25z m20 -50 c0 -5 -5 -3 -10 5 -5 8 -10 20 -10 25 0 6
5 3 10 -5 5 -8 10 -19 10 -25z m20 -50 c0 -5 -5 -3 -10 5 -5 8 -10 20 -10 25
0 6 5 3 10 -5 5 -8 10 -19 10 -25z"/>
<path d="M10576 10943 c-3 -3 -6 -556 -6 -1228 0 -1058 2 -1224 15 -1241 13
-17 14 129 15 1223 0 683 -4 1244 -9 1247 -4 3 -11 3 -15 -1z"/>
<path d="M13326 10943 c-3 -3 -6 -941 -6 -2084 0 -2045 0 -2078 19 -2089 26
-14 515 -14 506 0 -4 6 -98 10 -251 10 l-244 0 0 2079 c0 1151 -4 2082 -9
2085 -4 3 -11 3 -15 -1z"/>
<path d="M14406 10943 c-3 -3 -6 -664 -6 -1468 0 -1269 2 -1464 15 -1481 13
-17 14 158 15 1463 0 817 -4 1484 -9 1487 -4 3 -11 3 -15 -1z"/>
<path d="M12250 9845 c0 -465 3 -586 13 -583 9 4 13 129 15 575 2 498 0 572
-13 583 -13 11 -15 -53 -15 -575z"/>
<path d="M8655 10390 c4 -6 55 -10 121 -10 114 0 115 0 124 -26 6 -14 10 -70
10 -124 0 -55 4 -102 10 -105 6 -4 10 43 10 134 l0 141 -141 0 c-91 0 -138 -4
-134 -10z"/>
<path d="M9505 10390 c-4 -7 133 -10 405 -10 272 0 409 3 405 10 -4 6 -150 10
-405 10 -255 0 -401 -4 -405 -10z"/>
<path d="M18920 10306 c0 -2 8 -10 18 -17 15 -13 16 -12 3 4 -13 16 -21 21
-21 13z"/>
<path d="M3290 10286 c0 -2 8 -10 18 -17 15 -13 16 -12 3 4 -13 16 -21 21 -21
13z"/>
<path d="M18975 10260 c10 -11 20 -20 23 -20 3 0 -3 9 -13 20 -10 11 -20 20
-23 20 -3 0 3 -9 13 -20z"/>
<path d="M3330 10256 c0 -2 8 -10 18 -17 15 -13 16 -12 3 4 -13 16 -21 21 -21
13z"/>
<path d="M19060 10185 c30 -30 57 -55 59 -55 3 0 -19 25 -49 55 -30 30 -57 55
-59 55 -3 0 19 -25 49 -55z"/>
<path d="M3389 10207 c26 -28 31 -32 31 -19 0 4 -13 16 -28 26 l-27 19 24 -26z"/>
<path d="M3430 10177 c0 -2 15 -16 33 -33 l32 -29 -29 33 c-28 30 -36 37 -36
29z"/>
<path d="M4580 9989 c0 -5 5 -7 10 -4 6 3 10 8 10 11 0 2 -4 4 -10 4 -5 0 -10
-5 -10 -11z"/>
<path d="M2060 8996 c0 -2 8 -10 18 -17 15 -13 16 -12 3 4 -13 16 -21 21 -21
13z"/>
<path d="M11165 8690 c-4 -7 174 -10 527 -10 402 0 537 -3 546 -12 9 -9 12
-229 12 -929 0 -802 2 -918 15 -929 13 -11 15 94 15 939 l0 951 -554 0 c-359
0 -557 -4 -561 -10z"/>
<path d="M3181 8154 c0 -11 3 -14 6 -6 3 7 2 16 -1 19 -3 4 -6 -2 -5 -13z"/>
<path d="M17670 6896 c0 -2 8 -10 18 -17 15 -13 16 -12 3 4 -13 16 -21 21 -21
13z"/>
<path d="M12315 6770 c4 -6 94 -10 236 -10 151 0 228 3 224 10 -4 6 -94 10
-236 10 -151 0 -228 -3 -224 -10z"/>
</g>
</svg>
